<svg xmlns="http://www.w3.org/2000/svg" width="500" height="500" style="width:100%;height:100%;transform:translate3d(0,0,0);content-visibility:visible" viewBox="0 0 500 500"><defs><clipPath id="g"><path d="M0 0h500v500H0z"/></clipPath><clipPath id="l"><path d="M0 0h500v500H0z"/></clipPath><clipPath id="j"><path d="M0 0h500v500H0z"/></clipPath><clipPath id="h"><path d="M0 0h500v500H0z"/></clipPath><filter id="a" width="100%" height="100%" x="0%" y="0%" filterUnits="objectBoundingBox"><feComponentTransfer in="SourceGraphic"><feFuncA tableValues="1.0 0.0" type="table"/></feComponentTransfer></filter><filter id="c" width="100%" height="100%" x="0%" y="0%" filterUnits="objectBoundingBox"><feComponentTransfer in="SourceGraphic"><feFuncA tableValues="1.0 0.0" type="table"/></feComponentTransfer></filter><filter id="e" width="100%" height="100%" x="0%" y="0%" filterUnits="objectBoundingBox"><feComponentTransfer in="SourceGraphic"><feFuncA tableValues="1.0 0.0" type="table"/></feComponentTransfer></filter><mask id="m" mask-type="alpha"><g filter="url(#a)"><path fill="#fff" d="M0 0h500v500H0z" opacity="0"/><use xmlns:ns1="http://www.w3.org/1999/xlink" ns1:href="#b"/></g></mask><mask id="k" mask-type="alpha"><g filter="url(#c)"><path fill="#fff" d="M0 0h500v500H0z" opacity="0"/><use xmlns:ns2="http://www.w3.org/1999/xlink" ns2:href="#d"/></g></mask><mask id="i" mask-type="alpha"><g filter="url(#e)"><path fill="#fff" d="M0 0h500v500H0z" opacity="0"/><use xmlns:ns3="http://www.w3.org/1999/xlink" ns3:href="#f"/></g></mask><g id="b" fill-opacity="0" stroke-linecap="round" stroke-linejoin="round" class="primary design" style="display:none"><path/><path/><path/></g><g id="f" fill-opacity="0" stroke-linecap="round" stroke-linejoin="round" class="primary design" style="display:none"><path/><path/><path/></g><path id="d" fill-opacity="0" stroke-linecap="round" stroke-linejoin="round" class="primary design" style="display:none"/></defs><g clip-path="url(#g)"><g clip-path="url(#h)" opacity="0" style="display:block"><g class="primary design" mask="url(#i)" style="display:none"><path/><path fill="none"/></g><path fill="#121330" d="M0-10c-5.52 0-10 4.48-10 10s4.48 10 10 10S10 5.52 10 0 5.52-10 0-10zM4.71 2.11c-.2.2-.45.29-.71.29-.26 0-.51-.09-.71-.29L0-1.18l-3.29 3.29c-.39.39-1.03.39-1.42 0a.996.996 0 0 1 0-1.41l4-4c.39-.39 1.03-.39 1.42 0l4 4c.39.39.39 1.02 0 1.41z" class="primary design" opacity="1" style="display:block" transform="translate(250 250) scale(20.83)"/><path class="primary design" style="display:none"/></g><g clip-path="url(#j)" style="display:block"><g class="primary design" mask="url(#k)" style="display:none"><path/><path fill="none"/></g><path fill="#121330" d="M0-10c-5.52 0-10 4.48-10 10s4.48 10 10 10S10 5.52 10 0 5.52-10 0-10zM4.71 2.11c-.2.2-.45.29-.71.29-.26 0-.51-.09-.71-.29L0-1.18l-3.29 3.29c-.39.39-1.03.39-1.42 0a.996.996 0 0 1 0-1.41l4-4c.39-.39 1.03-.39 1.42 0l4 4c.39.39.39 1.02 0 1.41z" class="primary design" style="display:block" transform="translate(250 250) scale(20.83)"/><path class="primary design" style="display:none"/></g><g clip-path="url(#l)" opacity="0" style="display:block"><g class="primary design" mask="url(#m)" style="display:none"><path fill="none"/><path/></g><path class="primary design" style="display:none"/></g><g class="com" style="display:none"><path/><path/><path/><path/><path/><path/><path/><path/><path/><path/><path/><path/></g></g></svg>